<?xml version="1.0" standalone="no"?>
<!DOCTYPE svg PUBLIC "-//W3C//DTD SVG 20010904//EN"
 "http://www.w3.org/TR/2001/REC-SVG-20010904/DTD/svg10.dtd">
<svg version="1.0" xmlns="http://www.w3.org/2000/svg"
 width="1200.000000pt" height="1200.000000pt" viewBox="0 0 1200.000000 1200.000000"
 preserveAspectRatio="xMidYMid meet">
<metadata>
Created by potrace 1.14, written by Peter Selinger 2001-2017
</metadata>
<g transform="translate(0.000000,1200.000000) scale(0.100000,-0.100000)"
fill="#000000" stroke="none">
<path d="M5940 11482 c-111 -16 -216 -89 -273 -190 l-24 -43 -22 34 c-29 47
-83 92 -150 124 -49 24 -68 27 -151 27 -101 0 -147 -15 -219 -68 -46 -34 -108
-119 -122 -167 l-12 -39 -47 44 c-126 118 -298 138 -446 51 -70 -41 -144 -137
-160 -208 -3 -12 -7 -29 -9 -37 -2 -8 -4 -19 -4 -24 -1 -4 -17 6 -36 22 -58
52 -188 97 -249 87 -12 -2 -38 -6 -59 -9 -132 -20 -268 -164 -284 -299 -8 -68
-8 -68 -55 -42 -151 83 -322 60 -444 -60 -63 -62 -96 -140 -102 -236 l-4 -77
-45 20 c-58 26 -174 34 -233 17 -25 -7 -47 -13 -50 -13 -3 -1 -26 -13 -51 -28
-105 -62 -170 -172 -175 -296 -1 -41 2 -85 7 -99 8 -22 7 -24 -8 -19 -92 36
-213 30 -302 -15 -166 -83 -243 -286 -175 -462 5 -13 1 -15 -23 -9 -98 26
-243 -14 -324 -90 -112 -104 -150 -278 -90 -413 12 -26 21 -48 21 -49 0 -1
-20 0 -44 2 -173 14 -355 -140 -375 -317 -8 -72 12 -172 46 -231 15 -25 25
-47 22 -49 -2 -2 -21 -5 -42 -6 -90 -6 -196 -69 -259 -155 -92 -128 -85 -317
18 -439 30 -36 29 -40 -12 -47 -95 -16 -202 -102 -251 -202 -25 -50 -28 -68
-28 -152 0 -84 3 -103 29 -157 17 -37 47 -80 72 -103 l44 -40 -27 -11 c-102
-39 -176 -104 -219 -195 -25 -52 -29 -70 -29 -154 0 -84 4 -102 28 -150 32
-63 65 -103 120 -144 l38 -29 -48 -27 c-109 -63 -176 -174 -180 -301 -2 -86
15 -154 53 -212 30 -46 86 -100 122 -118 53 -26 54 -30 14 -59 -104 -76 -158
-197 -146 -325 7 -75 27 -127 71 -188 38 -51 142 -127 174 -127 28 0 31 -17 6
-37 -37 -28 -84 -100 -101 -151 -46 -137 -14 -282 84 -380 45 -45 132 -92 187
-101 l35 -6 -31 -39 c-50 -63 -73 -123 -78 -207 -13 -198 121 -362 317 -386
25 -3 46 -6 47 -7 1 0 -14 -33 -32 -71 -38 -78 -48 -146 -33 -228 31 -169 185
-297 359 -297 l58 0 -24 -57 c-33 -82 -31 -204 6 -283 47 -101 130 -172 235
-203 50 -15 153 -16 186 -2 22 9 22 4 4 -39 -23 -55 -15 -190 17 -258 67 -148
234 -238 389 -211 35 6 71 14 81 18 15 6 17 4 12 -18 -21 -82 -4 -187 41 -264
38 -65 90 -112 163 -147 59 -28 75 -31 156 -31 72 1 99 5 134 23 25 12 47 22
50 22 3 0 7 -34 7 -75 1 -63 7 -86 33 -139 37 -76 101 -138 179 -174 49 -23
70 -27 152 -27 80 0 103 4 145 24 28 13 58 31 68 39 9 8 17 13 18 11 0 -2 2
-26 4 -52 8 -104 90 -224 190 -281 125 -69 314 -48 411 45 l31 30 7 -38 c20
-106 100 -209 203 -260 52 -25 68 -28 158 -28 90 1 106 4 155 29 30 15 76 49
103 74 45 44 47 45 47 21 0 -33 66 -135 111 -172 107 -89 253 -113 376 -62 54
23 127 80 158 125 l28 40 27 -47 c78 -136 231 -208 385 -180 105 18 207 94
257 191 l20 39 17 -29 c28 -45 98 -104 160 -132 47 -23 70 -27 146 -27 77 0
99 4 147 27 75 35 148 104 181 172 15 30 27 60 27 67 0 7 19 -6 42 -29 23 -24
71 -57 107 -75 60 -29 74 -32 156 -31 70 0 101 5 138 22 105 47 174 124 209
233 l22 68 34 -31 c63 -55 179 -90 264 -80 160 18 301 144 323 289 6 38 13 76
14 81 1 1 18 -9 39 -22 78 -52 214 -66 311 -32 146 50 244 191 244 348 0 41 3
55 11 49 23 -17 103 -41 151 -45 143 -11 290 71 353 197 34 67 37 83 36 184 0
61 4 89 11 85 5 -4 15 -7 20 -8 6 -1 28 -6 50 -11 83 -19 186 3 269 59 57 37
121 125 141 192 19 63 19 162 1 214 l-15 41 74 -6 c176 -14 341 100 385 267
20 72 15 161 -13 229 l-24 60 51 0 c69 1 102 8 162 35 117 54 201 178 208 307
5 85 -26 190 -71 241 -14 15 -12 17 14 16 119 -3 262 90 318 207 61 130 40
301 -49 396 -27 29 -25 39 8 39 41 0 145 59 193 109 101 106 129 270 67 401
-17 36 -50 84 -74 108 -24 23 -41 42 -39 43 30 5 42 10 75 25 22 10 62 41 90
69 118 118 146 280 72 428 -23 46 -83 114 -121 137 l-28 17 47 28 c118 69 186
185 185 313 0 31 -2 64 -4 72 -26 113 -91 202 -190 260 l-48 28 34 21 c35 21
91 84 112 125 73 139 52 307 -52 423 -39 42 -136 103 -166 103 -9 0 -17 1 -17
3 0 2 21 25 46 52 69 72 97 141 98 245 1 110 -21 172 -90 249 -54 59 -129 104
-196 116 l-38 7 30 38 c96 121 106 287 25 425 -52 90 -176 165 -277 169 -21 0
-38 2 -38 2 0 1 13 28 29 60 34 70 44 111 43 181 0 94 -47 197 -119 265 -50
48 -158 90 -235 92 -57 1 -67 4 -62 16 4 8 16 40 27 70 53 151 -24 343 -172
424 -70 38 -84 41 -189 40 -77 0 -92 3 -87 15 75 196 -39 417 -250 482 -46 15
-155 12 -203 -5 l-42 -15 6 32 c45 225 -127 437 -355 438 -62 0 -154 -22 -175
-42 -18 -17 -21 -9 -23 67 -5 272 -308 436 -550 298 -51 -29 -51 -29 -49 -1 3
31 -22 114 -47 162 -29 54 -101 120 -167 153 -49 24 -66 27 -150 26 -105 0
-159 -18 -231 -75 -22 -17 -39 -29 -40 -27 0 1 -2 14 -5 28 -2 14 -8 34 -13
45 -5 11 -16 36 -24 55 -33 74 -134 156 -221 180 -71 19 -161 16 -228 -9 -55
-21 -158 -94 -158 -112 0 -5 -4 -9 -8 -9 -9 0 -42 69 -42 87 0 6 -25 36 -55
67 -170 177 -442 152 -577 -52 l-15 -23 -18 37 c-22 46 -80 110 -126 139 -68
44 -174 68 -249 57z"/>
</g>
</svg>
